<?xml version="1.0" encoding="UTF-8"?>
<svg id="Layer_2" data-name="Layer 2" xmlns="http://www.w3.org/2000/svg" xmlns:xlink="http://www.w3.org/1999/xlink" viewBox="0 0 567.74 567.74">
  <defs>
    <style>
      .cls-1 {
        fill: url(#linear-gradient);
        stroke: #fff;
        stroke-width: 4px;
      }

      .cls-1, .cls-2, .cls-3 {
        stroke-miterlimit: 10;
      }

      .cls-4 {
        fill: #e2effa;
      }

      .cls-5, .cls-2, .cls-3 {
        fill: none;
      }

      .cls-2 {
        filter: url(#drop-shadow-1);
      }

      .cls-2, .cls-3 {
        opacity: .97;
        stroke: #fffef0;
        stroke-width: 3px;
      }

      .cls-6 {
        fill: url(#linear-gradient-2);
        opacity: .8;
      }

      .cls-7 {
        fill: #00609d;
      }

      .cls-3 {
        filter: url(#drop-shadow-2);
      }

      .cls-8 {
        clip-path: url(#clippath);
      }
    </style>
    <linearGradient id="linear-gradient" x1="280.66" y1="969.97" x2="284.05" y2="246.47" gradientUnits="userSpaceOnUse">
      <stop offset="0" stop-color="#afa3ae"/>
      <stop offset="1" stop-color="#fffaf9" stop-opacity=".85"/>
    </linearGradient>
    <clipPath id="clippath">
      <rect class="cls-5" x="2" y="2" width="563.74" height="563.74" rx="99.61" ry="99.61"/>
    </clipPath>
    <linearGradient id="linear-gradient-2" x1="292.67" y1="319.48" x2="295.08" y2="-50.02" gradientTransform="translate(587.66 241.6) rotate(-180)" gradientUnits="userSpaceOnUse">
      <stop offset="0" stop-color="#f3e1ee" stop-opacity="0"/>
      <stop offset="1" stop-color="#fffaf9" stop-opacity=".85"/>
    </linearGradient>
    <filter id="drop-shadow-1" x="120.27" y="75.43" width="378.72" height="427.68" filterUnits="userSpaceOnUse">
      <feOffset dx="5" dy="5"/>
      <feGaussianBlur result="blur" stdDeviation="12"/>
      <feFlood flood-color="#231f20" flood-opacity=".8"/>
      <feComposite in2="blur" operator="in"/>
      <feComposite in="SourceGraphic"/>
    </filter>
    <filter id="drop-shadow-2" x="78.75" y="295.51" width="209.04" height="208.8" filterUnits="userSpaceOnUse">
      <feOffset dx="5" dy="5"/>
      <feGaussianBlur result="blur-2" stdDeviation="12"/>
      <feFlood flood-color="#231f20" flood-opacity=".8"/>
      <feComposite in2="blur-2" operator="in"/>
      <feComposite in="SourceGraphic"/>
    </filter>
  </defs>
  <g id="Layer_1-2" data-name="Layer 1">
    <g>
      <rect class="cls-1" x="2" y="2" width="563.74" height="563.74" rx="99.61" ry="99.61"/>
      <path class="cls-7" d="M168.87,321.17c75.36-7.7,113.29,84.43,56.22,131.22-50.24,41.19-125.32,1.14-121-63,2.28-33.84,30.77-64.75,64.78-68.22Z"/>
      <path class="cls-4" d="M175.47,373.98c22.43-2.29,33.72,25.13,16.74,39.06-14.96,12.26-37.3.34-36.02-18.75.68-10.07,9.16-19.27,19.28-20.31Z"/>
      <g class="cls-8">
        <path class="cls-6" d="M-174.17,99.8C-174.17,3.77,35.36-74.07,293.83-74.07c258.47,0,468,77.85,468,173.87s-209.53,173.87-468,173.87c-258.47,0-468-77.85-468-173.87Z"/>
      </g>
      <path class="cls-7" d="M455.26,467.88h-107.87c-3.26,0-6.22-1.85-7.67-4.77-21.15-42.68-44.53-85.6-71.83-124.55s-54.3-71.61-108.54-46.62c-.32.15-.64.32-.95.51h0c-7.54,4.64-16.3-3.82-11.94-11.52l99.71-175.99c3.27-5.77,11.57-5.8,14.87-.05l201.63,350.15c3.29,5.71-.83,12.84-7.42,12.84Z"/>
      <path class="cls-7" d="M455.26,467.88h-107.87c-3.26,0-6.22-1.85-7.67-4.77-21.15-42.68-44.53-85.6-71.83-124.55s-54.3-71.61-108.54-46.62c-.32.15-.64.32-.95.51h0c-7.54,4.64-16.3-3.82-11.94-11.52l99.71-175.99c3.27-5.77,11.57-5.8,14.87-.05l201.63,350.15c3.29,5.71-.83,12.84-7.42,12.84Z"/>
      <path class="cls-2" d="M347.39,461.88c-.98,0-1.86-.55-2.29-1.43-25.62-51.69-48.59-91.51-72.29-125.33-22.3-31.81-43.54-58.15-77.76-58.15-11.8,0-24.29,3.11-38.2,9.52-.54.25-1.07.53-1.58.84-.48.29-.92.43-1.37.43-.86,0-1.77-.57-2.26-1.41-.46-.79-.44-1.6.05-2.47l99.71-175.99c.64-1.13,1.67-1.3,2.23-1.3s1.58.17,2.22,1.28l201.63,350.15c.64,1.12.27,2.08,0,2.56-.28.48-.93,1.28-2.22,1.28h-107.87Z"/>
      <path class="cls-7" d="M168.87,321.17c75.36-7.7,113.29,84.43,56.22,131.22-50.24,41.19-125.32,1.14-121-63,2.28-33.84,30.77-64.75,64.78-68.22Z"/>
      <path class="cls-3" d="M179.11,463.14c-19.12,0-37.72-8.17-51.03-22.4-12.89-13.79-19.29-31.88-18.01-50.95,2.11-31.42,28.76-59.52,59.4-62.65,2.75-.28,5.5-.42,8.19-.42,29.5,0,54.97,17.91,64.88,45.63,7.75,21.67,6.23,52.87-21.26,75.4-12.28,10.07-26.86,15.39-42.18,15.39Z"/>
    </g>
  </g>
</svg>